<svg id="SvgjsSvg1001" width="288" height="288" xmlns="http://www.w3.org/2000/svg" version="1.1" xmlns:xlink="http://www.w3.org/1999/xlink" xmlns:svgjs="http://svgjs.com/svgjs"><defs id="SvgjsDefs1002"></defs><g id="SvgjsG1008"><svg xmlns="http://www.w3.org/2000/svg" fill-rule="evenodd" clip-rule="evenodd" image-rendering="optimizeQuality" shape-rendering="geometricPrecision" text-rendering="geometricPrecision" viewBox="0 0 1707 1707" width="288" height="288"><path fill="#0e4208" d="M717 1707c-9,0 -18,-2 -27,-5l-232 -80c-42,-15 -65,-61 -50,-104l38 -112c-33,-24 -64,-52 -93,-82l-106 52c-11,5 -23,8 -36,8 -31,0 -59,-17 -73,-46l-108 -220c-9,-20 -10,-42 -3,-63 7,-20 21,-37 41,-47l106 -51c-6,-41 -8,-83 -7,-124l-112 -39c-20,-7 -37,-22 -47,-41 -9,-20 -11,-42 -3,-63l80 -232c11,-33 42,-55 77,-55 9,0 18,2 26,5l112 38c25,-33 52,-64 82,-93l-51 -106c-20,-40 -3,-89 37,-109l221 -108c11,-5 23,-8 36,-8 31,0 59,18 73,46l52 106c34,-5 68,-7 103,-7 7,0 14,0 21,0l39 -112c11,-33 42,-55 77,-55 9,0 18,2 26,5l232 80c43,14 66,61 51,103l-39 112c34,25 65,52 93,82l107 -51c11,-6 23,-9 35,-9 32,0 60,18 74,46l107 221c10,20 11,42 4,62 -7,21 -22,38 -41,47l-107 52c7,41 9,82 8,124l112 39c42,14 65,61 50,103l-80 232c-11,33 -42,55 -77,55 -9,0 -18,-1 -27,-4l-112 -39c-24,34 -52,65 -82,93l52 107c9,19 11,41 4,62 -7,21 -22,37 -42,47l-220 107c-12,6 -24,9 -36,9 -32,0 -60,-18 -74,-46l-51 -107c-34,6 -69,8 -103,8 -7,0 -14,0 -21,0l-39 112c-11,32 -42,55 -77,55zm136 -389c-256,0 -465,-208 -465,-465 0,-256 209,-465 465,-465 257,0 465,209 465,465 0,257 -208,465 -465,465zm-220 -260l441 0c-1,-8 -2,-16 -4,-24 -22,-87 -113,-151 -217,-151 -103,0 -191,61 -215,148 -3,9 -4,18 -5,27zm220 -416c-57,0 -104,47 -104,104 0,57 47,104 104,104 58,0 104,-47 104,-104 0,-57 -46,-104 -104,-104z" class="color2a0071 svgShape"></path><path fill="#b200d9" d="M1285 853c0,-238 -194,-431 -432,-431 -238,0 -431,193 -431,431 0,238 193,432 431,432 238,0 432,-194 432,-432zm-432 -244c76,0 138,61 138,137 0,48 -25,90 -62,114 31,9 59,22 84,40 45,32 76,76 89,126 3,10 4,21 5,32l31 0c9,0 17,8 17,17 0,9 -8,16 -17,16l-47 0 -476 0 -46 0c-10,0 -17,-7 -17,-16 0,-9 7,-17 17,-17l30 0c1,-12 4,-24 7,-36 21,-79 87,-139 171,-162 -37,-24 -61,-66 -61,-114 0,-76 62,-137 137,-137z" class="colorb200d9 svgShape"></path></svg></g></svg>